<svg width="20" height="20" fill="none" xmlns="http://www.w3.org/2000/svg"><path fill-rule="evenodd" clip-rule="evenodd" d="M3.333 6.458c-.575 0-1.041.467-1.041 1.042v8.333c0 .576.466 1.042 1.041 1.042h13.334c.575 0 1.041-.466 1.041-1.042V7.5c0-.575-.466-1.042-1.041-1.042H3.333zM1.042 7.5a2.292 2.292 0 012.291-2.292h13.334A2.292 2.292 0 0118.958 7.5v8.333a2.292 2.292 0 01-2.291 2.292H3.333a2.292 2.292 0 01-2.291-2.292V7.5z" fill="#D8DEEB"/><path fill-rule="evenodd" clip-rule="evenodd" d="M6.713 2.546a2.292 2.292 0 011.62-.671h3.334a2.292 2.292 0 012.291 2.292v1.905h-1.25V4.167a1.041 1.041 0 00-1.041-1.042H8.333a1.042 1.042 0 00-1.041 1.042v1.905h-1.25V4.167c0-.608.241-1.191.67-1.62zm-2.45 7.526c.69.388 1.59.588 2.497.588h6.326c.908 0 1.806-.2 2.497-.588.674-.378 1.215-.983 1.215-1.758V6.285H15.7v2.029c0 .166-.126.463-.638.75-.495.278-1.206.452-1.976.452H6.76c-.77 0-1.48-.174-1.976-.452-.512-.287-.638-.584-.638-.75V6.285H3.048v2.029c0 .775.541 1.38 1.215 1.758zm3.81 2.22c0-.346.28-.625.625-.625h2.604a.625.625 0 110 1.25H8.698a.625.625 0 01-.625-.625z" fill="#D8DEEB"/></svg>