<svg width="230" height="170" fill="none" xmlns="http://www.w3.org/2000/svg"><path fill="#FFF8DF" d="M41 11h148v148H41z"/><rect y="-15" width="230" height="200" rx="4" fill="#F3F6F8"/><path d="M146.192 103.94l-13.731-13.73-.575.575a2.442 2.442 0 01-3.453-3.453l.575-.576-3.453-3.453-11.511 11.51 3.453 3.454.576-.576a2.443 2.443 0 013.453 3.454l-.576.575 13.732 13.731c.416.413.876.781 1.371 1.095l11.234-11.235a8.278 8.278 0 00-1.095-1.371z" fill="#C4CDDF"/><path d="M147.287 105.311l-11.235 11.234a8.13 8.13 0 0011.235-11.234zm-51.66-45.029l-1.15-4.605-8.058-4.604-4.605 4.604 4.605 8.058 4.604 1.151 26.474 26.475 4.605-4.605-26.475-26.474z" fill="#D8DEEB"/><path d="M148.187 60.67l-7.668 7.67-6.907-2.303-2.302-6.907 7.669-7.668c-6.748-1.722-13.613 2.353-15.335 9.1a12.627 12.627 0 000 6.235L97.538 92.903c-6.817-1.73-13.745 2.392-15.475 9.209-1.73 6.816 2.392 13.744 9.208 15.474 6.817 1.73 13.745-2.392 15.475-9.208a12.732 12.732 0 000-6.266l26.106-26.107c6.753 1.718 13.617-2.364 15.335-9.116.518-2.04.518-4.178 0-6.218zm-50.258 50.26h-6.906l-3.454-5.756 3.454-5.755h6.906l3.454 5.755-3.454 5.756z" fill="#D8DEEB"/><path d="M101.717 96.301l25.323-25.323 1.628 1.628-25.323 25.323-1.628-1.628z" fill="#C4CDDF"/><path d="M127.041 97.93l1.628-1.628 11.51 11.51-1.628 1.628-11.51-11.51z" fill="#B6C2DA"/><path d="M148.576 109.695a8.12 8.12 0 00-1.289-4.384l-3.315 3.315v8.392a8.133 8.133 0 004.604-7.323z" fill="#C4CDDF"/></svg>