<svg width="72" height="47" fill="none" xmlns="http://www.w3.org/2000/svg"><path d="M49.636 31.26l5.678 11.726a8 8 0 007.2 4.514H64V52H5v-4.5h1.032a8 8 0 007.17-4.453L19.1 31.131c6.27-12.676 24.374-12.599 30.537.13z" fill="#fff"/><path d="M49.636 31.26l5.678 11.726a8 8 0 007.2 4.514H64V52H5v-4.5h1.032a8 8 0 007.17-4.453L19.1 31.131c6.27-12.676 24.374-12.599 30.537.13z" fill="#fff"/><g clip-path="url(#clip0_1504_3108)"><path d="M42.5 33.75h-5.725L35 28.5l-1.775 5.25H27.5L32.125 37l-1.775 5.25L35 39l4.625 3.25L37.85 37l4.65-3.25z" fill="#FFCE31"/><path d="M38.55 33.075l1-2.85-2.625 1.8.375 1.05h1.25zM33.975 40.5l1.025 3 1.025-3L35 39.8l-1.025.7zm5.7-3.925l-.95.65.4 1.2h3.225l-2.675-1.85zm-6.6-4.55l-2.625-1.8 1 2.85h1.25l.375-1.05zm-2.75 4.55l-2.675 1.85h3.225l.4-1.2-.95-.65z" fill="#FFDF85"/></g><defs><clipPath id="clip0_1504_3108"><path fill="#fff" transform="translate(27 28)" d="M0 0h16v16H0z"/></clipPath></defs></svg>