<svg width="72" height="47" fill="none" xmlns="http://www.w3.org/2000/svg"><path d="M49.636 31.26l5.678 11.726a8 8 0 007.2 4.514H64V52H5v-4.5h1.032a8 8 0 007.17-4.453L19.1 31.131c6.27-12.676 24.374-12.599 30.537.13z" fill="#fff"/><path d="M49.636 31.26l5.678 11.726a8 8 0 007.2 4.514H64V52H5v-4.5h1.032a8 8 0 007.17-4.453L19.1 31.131c6.27-12.676 24.374-12.599 30.537.13z" fill="#fff"/><g clip-path="url(#clip0_1504_1995)"><path d="M32.385 37.513c0-.331-.228-.58-.53-.58h-3.954c-.302 0-.53.249-.53.58 0 .321.23.565.537.565h1.373v4.453c0 .325.247.55.6.55.354 0 .601-.226.601-.55v-4.453h1.374c.296 0 .529-.249.529-.566zm2.378-.688c-1.682 0-2.77 1.24-2.77 3.156 0 1.926 1.087 3.171 2.77 3.171 1.673 0 2.755-1.242 2.755-3.163 0-1.922-1.08-3.164-2.755-3.164zm0 5.19c-.954 0-1.546-.776-1.546-2.026 0-1.255.592-2.035 1.546-2.035.945 0 1.531.764 1.531 1.992.001 1.315-.558 2.07-1.531 2.07zm5.837-5.083h-1.594c-.655 0-.987.347-.987 1.032v4.552c0 .337.239.564.593.564.349 0 .593-.229.593-.557v-1.777h1.367c1.288 0 2.058-.73 2.058-1.957 0-1.162-.759-1.857-2.03-1.857zm.814 1.872c0 .557-.28.828-.858.828h-1.351v-1.578h1.352c.577 0 .857.246.857.75zm-4.958-3.419V32.81h.722c.424 0 .773-.406.815-.927l-3.248-3.736-3.227 3.735c.042.52.39.928.815.928h.722v2.576h3.401z" fill="#606483"/></g><defs><clipPath id="clip0_1504_1995"><path fill="#fff" transform="translate(27 28)" d="M0 0h16v16H0z"/></clipPath></defs></svg>