<svg width="24" height="24" fill="none" xmlns="http://www.w3.org/2000/svg"><rect width="24" height="24" rx="4" fill="#FF5A50"/><path d="M19.647 10.938v.425a.637.637 0 01-.638.637h-.212l-.693 4.853a1.274 1.274 0 01-1.262 1.094H7.158a1.274 1.274 0 01-1.261-1.094L5.203 12h-.212a.637.637 0 01-.637-.637v-.425c0-.352.285-.637.637-.637h1.788l2.835-3.898a.85.85 0 011.374 1L8.88 10.3h6.24l-2.108-2.899a.85.85 0 011.374-1l2.835 3.899h1.788c.352 0 .638.285.638.637zm-7.01 4.673v-2.974a.637.637 0 10-1.274 0v2.974a.637.637 0 001.274 0zm2.974 0v-2.974a.637.637 0 10-1.274 0v2.974a.637.637 0 101.274 0zm-5.947 0v-2.974a.637.637 0 10-1.275 0v2.974a.637.637 0 001.275 0z" fill="#fff"/></svg>