<svg width="24" height="24" fill="none" xmlns="http://www.w3.org/2000/svg"><rect width="24" height="24" rx="4" fill="#2F93E1"/><path d="M16.748 6.519H13.72a1.813 1.813 0 00-3.436 0h-2.91a.736.736 0 00-.841.71v10.775a.715.715 0 00.719.711h9.496a.716.716 0 00.72-.71V7.23a.715.715 0 00-.72-.711zM9.178 7.78a.42.42 0 01.42-.421h1.447v-.265a.974.974 0 011.947 0v.286h1.447a.42.42 0 01.42.42v.758H9.162l.017-.778zm6.106 3.881l-3.835 3.836-2.204-2.204a.595.595 0 11.841-.841l1.371 1.37 3.003-3.002a.595.595 0 01.841.841h-.017z" fill="#fff"/></svg>