<svg width="24" height="24" fill="none" xmlns="http://www.w3.org/2000/svg"><rect width="24" height="24" rx="4" fill="#FFA438"/><path d="M17.793 7.943h-2.634v-.507c0-.403-.167-.79-.463-1.075a1.613 1.613 0 00-1.117-.446h-3.16c-.418 0-.82.16-1.116.446a1.495 1.495 0 00-.463 1.075v.507H6.207a1.07 1.07 0 00-.744.298.997.997 0 00-.309.716v8.114c0 .269.112.527.309.717.197.19.465.297.744.297h11.586c.279 0 .547-.107.744-.297a.997.997 0 00.309-.717V8.957a.997.997 0 00-.309-.716 1.075 1.075 0 00-.744-.298zm-7.9 2.536a.498.498 0 01-.154.358.537.537 0 01-.745 0 .498.498 0 01-.154-.358V9.465c0-.135.055-.264.154-.359a.537.537 0 01.745 0 .498.498 0 01.154.359v1.014zm0-3.043a.5.5 0 01.154-.358.538.538 0 01.373-.149h3.16c.139 0 .273.054.371.149a.499.499 0 01.155.358v.507H9.893v-.507zm5.266 3.043a.498.498 0 01-.154.358.537.537 0 01-.745 0 .498.498 0 01-.154-.358V9.465c0-.135.055-.264.154-.359a.537.537 0 01.745 0 .498.498 0 01.154.359v1.014z" fill="#fff"/></svg>