<svg width="24" height="24" fill="none" xmlns="http://www.w3.org/2000/svg"><rect width="24" height="24" rx="4" fill="#FF5A50"/><path fill-rule="evenodd" clip-rule="evenodd" d="M18.623 4.569a.494.494 0 00-.93.325c1.098 1.827.885 2.99-.263 3.861l-.463-.664a1.082 1.082 0 00-.775-.411l-2.602.011c-.318.01-.627.105-.895.276L5.03 13.342a.824.824 0 00-.202 1.146l3.484 4.984c.26.371.678.326 1.05.067l7.665-5.376c.22-.156.475-.492.565-.749l.814-2.566c.09-.257.035-.647-.12-.87l-.283-.405c1.54-1.18 1.706-3.183.62-5.004zm-1.934 6.82a1.313 1.313 0 01-2.046-1.306 1.317 1.317 0 011.304-1.087c.274.002.54.09.76.25a5.016 5.016 0 01-.403.225.495.495 0 00.212.941c.07 0 .142-.016.21-.048a5.93 5.93 0 00.504-.27 1.318 1.318 0 01-.541 1.295zm-5.75-.249a.686.686 0 01.958.155l1.591 2.202a.686.686 0 01-1.113.804l-1.59-2.203a.686.686 0 01.154-.958zm-1.436 1.812a.686.686 0 10-1.112.804l1.59 2.202a.686.686 0 001.113-.804l-1.59-2.202z" fill="#fff"/></svg>