<svg width="36" height="36" fill="none" xmlns="http://www.w3.org/2000/svg"><rect width="36" height="36" rx="6" fill="#F3F6F8"/><path fill-rule="evenodd" clip-rule="evenodd" d="M11.333 14.458c-.575 0-1.041.467-1.041 1.042v8.333c0 .576.466 1.042 1.041 1.042h13.334c.575 0 1.041-.466 1.041-1.042V15.5c0-.575-.466-1.042-1.041-1.042H11.333zM9.042 15.5a2.292 2.292 0 012.291-2.292h13.334a2.292 2.292 0 012.291 2.292v8.333a2.292 2.292 0 01-2.291 2.292H11.333a2.292 2.292 0 01-2.291-2.292V15.5z" fill="#D8DEEB"/><path fill-rule="evenodd" clip-rule="evenodd" d="M14.713 10.546a2.291 2.291 0 011.62-.671h3.334a2.292 2.292 0 012.291 2.292v1.905h-1.25v-1.905a1.041 1.041 0 00-1.041-1.042h-3.334a1.041 1.041 0 00-1.041 1.042v1.905h-1.25v-1.905c0-.608.241-1.191.67-1.62zm-2.45 7.526c.69.387 1.59.588 2.497.588h6.326c.908 0 1.806-.2 2.497-.588.674-.378 1.215-.983 1.215-1.758v-2.029H23.7v2.029c0 .166-.126.463-.638.75-.495.278-1.206.451-1.976.451H14.76c-.77 0-1.48-.173-1.976-.45-.512-.288-.638-.585-.638-.751v-2.029h-1.098v2.029c0 .775.54 1.38 1.215 1.758zm3.81 2.22c0-.346.28-.625.625-.625h2.604a.625.625 0 110 1.25h-2.604a.625.625 0 01-.625-.625z" fill="#D8DEEB"/></svg>